<?xml version="1.0" encoding="us-ascii" standalone="no"?><svg xmlns="http://www.w3.org/2000/svg" xmlns:xlink="http://www.w3.org/1999/xlink" contentStyleType="text/css" height="882px" preserveAspectRatio="none" style="width:1751px;height:882px;background:#FFFFFF;" version="1.1" viewBox="0 0 1751 882" width="1751px" zoomAndPan="magnify"><defs/><g><!--class InvestmentService--><g id="elem_InvestmentService"><rect codeLine="2" fill="#F1F1F1" height="83.2188" id="InvestmentService" rx="2.5" ry="2.5" style="stroke:#181818;stroke-width:0.5;" width="466" x="417.5" y="499.5"/><ellipse cx="588.75" cy="515.5" fill="#ADD1B2" rx="11" ry="11" style="stroke:#181818;stroke-width:1.0;"/><path d="M591.5156,511.375 Q591.6719,511.1563 591.8594,511.0469 Q592.0469,510.9375 592.2656,510.9375 Q592.6406,510.9375 592.875,511.2031 Q593.1094,511.4531 593.1094,512.0625 L593.1094,513.5156 Q593.1094,514.125 592.875,514.3906 Q592.6406,514.6563 592.2656,514.6563 Q591.9219,514.6563 591.7188,514.4531 Q591.5156,514.2656 591.4063,513.75 Q591.3594,513.3906 591.1719,513.2031 Q590.8438,512.8281 590.2344,512.6094 Q589.625,512.3906 589,512.3906 Q588.2344,512.3906 587.5938,512.7188 Q586.9688,513.0469 586.4688,513.7969 Q585.9844,514.5469 585.9844,515.5781 L585.9844,516.6719 Q585.9844,517.9063 586.875,518.7344 Q587.7656,519.5469 589.3594,519.5469 Q590.2969,519.5469 590.9531,519.2969 Q591.3438,519.1406 591.7656,518.7031 Q592.0313,518.4375 592.1719,518.3594 Q592.3281,518.2813 592.5313,518.2813 Q592.8594,518.2813 593.1094,518.5469 Q593.375,518.7969 593.375,519.1406 Q593.375,519.4844 593.0313,519.8906 Q592.5313,520.4688 591.7344,520.7969 Q590.6563,521.25 589.3594,521.25 Q587.8438,521.25 586.6406,520.625 Q585.6563,520.125 584.9688,519.0625 Q584.2813,517.9844 584.2813,516.7031 L584.2813,515.5469 Q584.2813,514.2188 584.8906,513.0781 Q585.5156,511.9219 586.6094,511.3125 Q587.7031,510.6875 588.9375,510.6875 Q589.6719,510.6875 590.3125,510.8594 Q590.9688,511.0156 591.5156,511.375 Z " fill="#000000"/><text fill="#000000" font-family="sans-serif" font-size="14" lengthAdjust="spacing" textLength="115" x="609.25" y="521.2285">InvestmentService</text><line style="stroke:#181818;stroke-width:0.5;" x1="418.5" x2="882.5" y1="531.5" y2="531.5"/><ellipse cx="428.5" cy="545.8047" fill="none" rx="3" ry="3" style="stroke:#038048;stroke-width:1.0;"/><text fill="#000000" font-family="sans-serif" font-size="14" lengthAdjust="spacing" textLength="409" x="437.5" y="550.0332">annualInvestmentResults: signal&lt;InvestmentResult[] | undefined&gt;</text><line style="stroke:#181818;stroke-width:0.5;" x1="418.5" x2="882.5" y1="557.1094" y2="557.1094"/><ellipse cx="428.5" cy="571.4141" fill="#84BE84" rx="3" ry="3" style="stroke:#038048;stroke-width:1.0;"/><text fill="#000000" font-family="sans-serif" font-size="14" lengthAdjust="spacing" textLength="440" x="437.5" y="575.6426">onCalculateInvestmentResults(investmentInput: InvestmentInput): void</text></g><!--class AppModule--><g id="elem_AppModule"><rect codeLine="7" fill="#F1F1F1" height="48" id="AppModule" rx="2.5" ry="2.5" style="stroke:#181818;stroke-width:0.5;" width="103" x="1268" y="7"/><ellipse cx="1283" cy="23" fill="#ADD1B2" rx="11" ry="11" style="stroke:#181818;stroke-width:1.0;"/><path d="M1285.7656,18.875 Q1285.9219,18.6563 1286.1094,18.5469 Q1286.2969,18.4375 1286.5156,18.4375 Q1286.8906,18.4375 1287.125,18.7031 Q1287.3594,18.9531 1287.3594,19.5625 L1287.3594,21.0156 Q1287.3594,21.625 1287.125,21.8906 Q1286.8906,22.1563 1286.5156,22.1563 Q1286.1719,22.1563 1285.9688,21.9531 Q1285.7656,21.7656 1285.6563,21.25 Q1285.6094,20.8906 1285.4219,20.7031 Q1285.0938,20.3281 1284.4844,20.1094 Q1283.875,19.8906 1283.25,19.8906 Q1282.4844,19.8906 1281.8438,20.2188 Q1281.2188,20.5469 1280.7188,21.2969 Q1280.2344,22.0469 1280.2344,23.0781 L1280.2344,24.1719 Q1280.2344,25.4063 1281.125,26.2344 Q1282.0156,27.0469 1283.6094,27.0469 Q1284.5469,27.0469 1285.2031,26.7969 Q1285.5938,26.6406 1286.0156,26.2031 Q1286.2813,25.9375 1286.4219,25.8594 Q1286.5781,25.7813 1286.7813,25.7813 Q1287.1094,25.7813 1287.3594,26.0469 Q1287.625,26.2969 1287.625,26.6406 Q1287.625,26.9844 1287.2813,27.3906 Q1286.7813,27.9688 1285.9844,28.2969 Q1284.9063,28.75 1283.6094,28.75 Q1282.0938,28.75 1280.8906,28.125 Q1279.9063,27.625 1279.2188,26.5625 Q1278.5313,25.4844 1278.5313,24.2031 L1278.5313,23.0469 Q1278.5313,21.7188 1279.1406,20.5781 Q1279.7656,19.4219 1280.8594,18.8125 Q1281.9531,18.1875 1283.1875,18.1875 Q1283.9219,18.1875 1284.5625,18.3594 Q1285.2188,18.5156 1285.7656,18.875 Z " fill="#000000"/><text fill="#000000" font-family="sans-serif" font-size="14" lengthAdjust="spacing" textLength="71" x="1297" y="28.7285">AppModule</text><line style="stroke:#181818;stroke-width:0.5;" x1="1269" x2="1370" y1="39" y2="39"/><line style="stroke:#181818;stroke-width:0.5;" x1="1269" x2="1370" y1="47" y2="47"/></g><!--class UserInputModule--><g id="elem_UserInputModule"><rect codeLine="10" fill="#F1F1F1" height="48" id="UserInputModule" rx="2.5" ry="2.5" style="stroke:#181818;stroke-width:0.5;" width="138" x="426.5" y="133"/><ellipse cx="441.5" cy="149" fill="#ADD1B2" rx="11" ry="11" style="stroke:#181818;stroke-width:1.0;"/><path d="M444.2656,144.875 Q444.4219,144.6563 444.6094,144.5469 Q444.7969,144.4375 445.0156,144.4375 Q445.3906,144.4375 445.625,144.7031 Q445.8594,144.9531 445.8594,145.5625 L445.8594,147.0156 Q445.8594,147.625 445.625,147.8906 Q445.3906,148.1563 445.0156,148.1563 Q444.6719,148.1563 444.4688,147.9531 Q444.2656,147.7656 444.1563,147.25 Q444.1094,146.8906 443.9219,146.7031 Q443.5938,146.3281 442.9844,146.1094 Q442.375,145.8906 441.75,145.8906 Q440.9844,145.8906 440.3438,146.2188 Q439.7188,146.5469 439.2188,147.2969 Q438.7344,148.0469 438.7344,149.0781 L438.7344,150.1719 Q438.7344,151.4063 439.625,152.2344 Q440.5156,153.0469 442.1094,153.0469 Q443.0469,153.0469 443.7031,152.7969 Q444.0938,152.6406 444.5156,152.2031 Q444.7813,151.9375 444.9219,151.8594 Q445.0781,151.7813 445.2813,151.7813 Q445.6094,151.7813 445.8594,152.0469 Q446.125,152.2969 446.125,152.6406 Q446.125,152.9844 445.7813,153.3906 Q445.2813,153.9688 444.4844,154.2969 Q443.4063,154.75 442.1094,154.75 Q440.5938,154.75 439.3906,154.125 Q438.4063,153.625 437.7188,152.5625 Q437.0313,151.4844 437.0313,150.2031 L437.0313,149.0469 Q437.0313,147.7188 437.6406,146.5781 Q438.2656,145.4219 439.3594,144.8125 Q440.4531,144.1875 441.6875,144.1875 Q442.4219,144.1875 443.0625,144.3594 Q443.7188,144.5156 444.2656,144.875 Z " fill="#000000"/><text fill="#000000" font-family="sans-serif" font-size="14" lengthAdjust="spacing" textLength="106" x="455.5" y="154.7285">UserInputModule</text><line style="stroke:#181818;stroke-width:0.5;" x1="427.5" x2="563.5" y1="165" y2="165"/><line style="stroke:#181818;stroke-width:0.5;" x1="427.5" x2="563.5" y1="173" y2="173"/></g><!--class InvestmentResultsModule--><g id="elem_InvestmentResultsModule"><rect codeLine="13" fill="#F1F1F1" height="48" id="InvestmentResultsModule" rx="2.5" ry="2.5" style="stroke:#181818;stroke-width:0.5;" width="193" x="1223" y="133"/><ellipse cx="1238" cy="149" fill="#ADD1B2" rx="11" ry="11" style="stroke:#181818;stroke-width:1.0;"/><path d="M1240.7656,144.875 Q1240.9219,144.6563 1241.1094,144.5469 Q1241.2969,144.4375 1241.5156,144.4375 Q1241.8906,144.4375 1242.125,144.7031 Q1242.3594,144.9531 1242.3594,145.5625 L1242.3594,147.0156 Q1242.3594,147.625 1242.125,147.8906 Q1241.8906,148.1563 1241.5156,148.1563 Q1241.1719,148.1563 1240.9688,147.9531 Q1240.7656,147.7656 1240.6563,147.25 Q1240.6094,146.8906 1240.4219,146.7031 Q1240.0938,146.3281 1239.4844,146.1094 Q1238.875,145.8906 1238.25,145.8906 Q1237.4844,145.8906 1236.8438,146.2188 Q1236.2188,146.5469 1235.7188,147.2969 Q1235.2344,148.0469 1235.2344,149.0781 L1235.2344,150.1719 Q1235.2344,151.4063 1236.125,152.2344 Q1237.0156,153.0469 1238.6094,153.0469 Q1239.5469,153.0469 1240.2031,152.7969 Q1240.5938,152.6406 1241.0156,152.2031 Q1241.2813,151.9375 1241.4219,151.8594 Q1241.5781,151.7813 1241.7813,151.7813 Q1242.1094,151.7813 1242.3594,152.0469 Q1242.625,152.2969 1242.625,152.6406 Q1242.625,152.9844 1242.2813,153.3906 Q1241.7813,153.9688 1240.9844,154.2969 Q1239.9063,154.75 1238.6094,154.75 Q1237.0938,154.75 1235.8906,154.125 Q1234.9063,153.625 1234.2188,152.5625 Q1233.5313,151.4844 1233.5313,150.2031 L1233.5313,149.0469 Q1233.5313,147.7188 1234.1406,146.5781 Q1234.7656,145.4219 1235.8594,144.8125 Q1236.9531,144.1875 1238.1875,144.1875 Q1238.9219,144.1875 1239.5625,144.3594 Q1240.2188,144.5156 1240.7656,144.875 Z " fill="#000000"/><text fill="#000000" font-family="sans-serif" font-size="14" lengthAdjust="spacing" textLength="161" x="1252" y="154.7285">InvestmentResultsModule</text><line style="stroke:#181818;stroke-width:0.5;" x1="1224" x2="1415" y1="165" y2="165"/><line style="stroke:#181818;stroke-width:0.5;" x1="1224" x2="1415" y1="173" y2="173"/></g><!--class AppComponent--><g id="elem_AppComponent"><rect codeLine="16" fill="#F1F1F1" height="48" id="AppComponent" rx="2.5" ry="2.5" style="stroke:#181818;stroke-width:0.5;" width="130" x="1043.5" y="133"/><ellipse cx="1058.5" cy="149" fill="#ADD1B2" rx="11" ry="11" style="stroke:#181818;stroke-width:1.0;"/><path d="M1061.2656,144.875 Q1061.4219,144.6563 1061.6094,144.5469 Q1061.7969,144.4375 1062.0156,144.4375 Q1062.3906,144.4375 1062.625,144.7031 Q1062.8594,144.9531 1062.8594,145.5625 L1062.8594,147.0156 Q1062.8594,147.625 1062.625,147.8906 Q1062.3906,148.1563 1062.0156,148.1563 Q1061.6719,148.1563 1061.4688,147.9531 Q1061.2656,147.7656 1061.1563,147.25 Q1061.1094,146.8906 1060.9219,146.7031 Q1060.5938,146.3281 1059.9844,146.1094 Q1059.375,145.8906 1058.75,145.8906 Q1057.9844,145.8906 1057.3438,146.2188 Q1056.7188,146.5469 1056.2188,147.2969 Q1055.7344,148.0469 1055.7344,149.0781 L1055.7344,150.1719 Q1055.7344,151.4063 1056.625,152.2344 Q1057.5156,153.0469 1059.1094,153.0469 Q1060.0469,153.0469 1060.7031,152.7969 Q1061.0938,152.6406 1061.5156,152.2031 Q1061.7813,151.9375 1061.9219,151.8594 Q1062.0781,151.7813 1062.2813,151.7813 Q1062.6094,151.7813 1062.8594,152.0469 Q1063.125,152.2969 1063.125,152.6406 Q1063.125,152.9844 1062.7813,153.3906 Q1062.2813,153.9688 1061.4844,154.2969 Q1060.4063,154.75 1059.1094,154.75 Q1057.5938,154.75 1056.3906,154.125 Q1055.4063,153.625 1054.7188,152.5625 Q1054.0313,151.4844 1054.0313,150.2031 L1054.0313,149.0469 Q1054.0313,147.7188 1054.6406,146.5781 Q1055.2656,145.4219 1056.3594,144.8125 Q1057.4531,144.1875 1058.6875,144.1875 Q1059.4219,144.1875 1060.0625,144.3594 Q1060.7188,144.5156 1061.2656,144.875 Z " fill="#000000"/><text fill="#000000" font-family="sans-serif" font-size="14" lengthAdjust="spacing" textLength="98" x="1072.5" y="154.7285">AppComponent</text><line style="stroke:#181818;stroke-width:0.5;" x1="1044.5" x2="1172.5" y1="165" y2="165"/><line style="stroke:#181818;stroke-width:0.5;" x1="1044.5" x2="1172.5" y1="173" y2="173"/></g><!--class UserInputComponent--><g id="elem_UserInputComponent"><rect codeLine="19" fill="#F1F1F1" height="83.2188" id="UserInputComponent" rx="2.5" ry="2.5" style="stroke:#181818;stroke-width:0.5;" width="285" x="353" y="268"/><ellipse cx="424.75" cy="284" fill="#ADD1B2" rx="11" ry="11" style="stroke:#181818;stroke-width:1.0;"/><path d="M427.5156,279.875 Q427.6719,279.6563 427.8594,279.5469 Q428.0469,279.4375 428.2656,279.4375 Q428.6406,279.4375 428.875,279.7031 Q429.1094,279.9531 429.1094,280.5625 L429.1094,282.0156 Q429.1094,282.625 428.875,282.8906 Q428.6406,283.1563 428.2656,283.1563 Q427.9219,283.1563 427.7188,282.9531 Q427.5156,282.7656 427.4063,282.25 Q427.3594,281.8906 427.1719,281.7031 Q426.8438,281.3281 426.2344,281.1094 Q425.625,280.8906 425,280.8906 Q424.2344,280.8906 423.5938,281.2188 Q422.9688,281.5469 422.4688,282.2969 Q421.9844,283.0469 421.9844,284.0781 L421.9844,285.1719 Q421.9844,286.4063 422.875,287.2344 Q423.7656,288.0469 425.3594,288.0469 Q426.2969,288.0469 426.9531,287.7969 Q427.3438,287.6406 427.7656,287.2031 Q428.0313,286.9375 428.1719,286.8594 Q428.3281,286.7813 428.5313,286.7813 Q428.8594,286.7813 429.1094,287.0469 Q429.375,287.2969 429.375,287.6406 Q429.375,287.9844 429.0313,288.3906 Q428.5313,288.9688 427.7344,289.2969 Q426.6563,289.75 425.3594,289.75 Q423.8438,289.75 422.6406,289.125 Q421.6563,288.625 420.9688,287.5625 Q420.2813,286.4844 420.2813,285.2031 L420.2813,284.0469 Q420.2813,282.7188 420.8906,281.5781 Q421.5156,280.4219 422.6094,279.8125 Q423.7031,279.1875 424.9375,279.1875 Q425.6719,279.1875 426.3125,279.3594 Q426.9688,279.5156 427.5156,279.875 Z " fill="#000000"/><text fill="#000000" font-family="sans-serif" font-size="14" lengthAdjust="spacing" textLength="133" x="445.25" y="289.7285">UserInputComponent</text><line style="stroke:#181818;stroke-width:0.5;" x1="354" x2="637" y1="300" y2="300"/><ellipse cx="364" cy="314.3047" fill="none" rx="3" ry="3" style="stroke:#038048;stroke-width:1.0;"/><text fill="#000000" font-family="sans-serif" font-size="14" lengthAdjust="spacing" textLength="259" x="373" y="318.5332">investmentInput: signal&lt;InvestmentInput&gt;</text><line style="stroke:#181818;stroke-width:0.5;" x1="354" x2="637" y1="325.6094" y2="325.6094"/><ellipse cx="364" cy="339.9141" fill="#84BE84" rx="3" ry="3" style="stroke:#038048;stroke-width:1.0;"/><text fill="#000000" font-family="sans-serif" font-size="14" lengthAdjust="spacing" textLength="103" x="373" y="344.1426">onSubmit(): void</text></g><!--class InvestmentResultsComponent--><g id="elem_InvestmentResultsComponent"><rect codeLine="24" fill="#F1F1F1" height="65.6094" id="InvestmentResultsComponent" rx="2.5" ry="2.5" style="stroke:#181818;stroke-width:0.5;" width="460" x="878.5" y="276.5"/><ellipse cx="1010.25" cy="292.5" fill="#ADD1B2" rx="11" ry="11" style="stroke:#181818;stroke-width:1.0;"/><path d="M1013.0156,288.375 Q1013.1719,288.1563 1013.3594,288.0469 Q1013.5469,287.9375 1013.7656,287.9375 Q1014.1406,287.9375 1014.375,288.2031 Q1014.6094,288.4531 1014.6094,289.0625 L1014.6094,290.5156 Q1014.6094,291.125 1014.375,291.3906 Q1014.1406,291.6563 1013.7656,291.6563 Q1013.4219,291.6563 1013.2188,291.4531 Q1013.0156,291.2656 1012.9063,290.75 Q1012.8594,290.3906 1012.6719,290.2031 Q1012.3438,289.8281 1011.7344,289.6094 Q1011.125,289.3906 1010.5,289.3906 Q1009.7344,289.3906 1009.0938,289.7188 Q1008.4688,290.0469 1007.9688,290.7969 Q1007.4844,291.5469 1007.4844,292.5781 L1007.4844,293.6719 Q1007.4844,294.9063 1008.375,295.7344 Q1009.2656,296.5469 1010.8594,296.5469 Q1011.7969,296.5469 1012.4531,296.2969 Q1012.8438,296.1406 1013.2656,295.7031 Q1013.5313,295.4375 1013.6719,295.3594 Q1013.8281,295.2813 1014.0313,295.2813 Q1014.3594,295.2813 1014.6094,295.5469 Q1014.875,295.7969 1014.875,296.1406 Q1014.875,296.4844 1014.5313,296.8906 Q1014.0313,297.4688 1013.2344,297.7969 Q1012.1563,298.25 1010.8594,298.25 Q1009.3438,298.25 1008.1406,297.625 Q1007.1563,297.125 1006.4688,296.0625 Q1005.7813,294.9844 1005.7813,293.7031 L1005.7813,292.5469 Q1005.7813,291.2188 1006.3906,290.0781 Q1007.0156,288.9219 1008.1094,288.3125 Q1009.2031,287.6875 1010.4375,287.6875 Q1011.1719,287.6875 1011.8125,287.8594 Q1012.4688,288.0156 1013.0156,288.375 Z " fill="#000000"/><text fill="#000000" font-family="sans-serif" font-size="14" lengthAdjust="spacing" textLength="188" x="1030.75" y="298.2285">InvestmentResultsComponent</text><line style="stroke:#181818;stroke-width:0.5;" x1="879.5" x2="1337.5" y1="308.5" y2="308.5"/><ellipse cx="889.5" cy="322.8047" fill="none" rx="3" ry="3" style="stroke:#038048;stroke-width:1.0;"/><text fill="#000000" font-family="sans-serif" font-size="14" lengthAdjust="spacing" textLength="434" x="898.5" y="327.0332">annualInvestmentResults: computed&lt;InvestmentResult[] | undefined&gt;</text><line style="stroke:#181818;stroke-width:0.5;" x1="879.5" x2="1337.5" y1="334.1094" y2="334.1094"/></g><!--class HeaderComponent--><g id="elem_HeaderComponent"><rect codeLine="28" fill="#F1F1F1" height="48" id="HeaderComponent" rx="2.5" ry="2.5" style="stroke:#181818;stroke-width:0.5;" width="151" x="1527" y="285.5"/><ellipse cx="1542" cy="301.5" fill="#ADD1B2" rx="11" ry="11" style="stroke:#181818;stroke-width:1.0;"/><path d="M1544.7656,297.375 Q1544.9219,297.1563 1545.1094,297.0469 Q1545.2969,296.9375 1545.5156,296.9375 Q1545.8906,296.9375 1546.125,297.2031 Q1546.3594,297.4531 1546.3594,298.0625 L1546.3594,299.5156 Q1546.3594,300.125 1546.125,300.3906 Q1545.8906,300.6563 1545.5156,300.6563 Q1545.1719,300.6563 1544.9688,300.4531 Q1544.7656,300.2656 1544.6563,299.75 Q1544.6094,299.3906 1544.4219,299.2031 Q1544.0938,298.8281 1543.4844,298.6094 Q1542.875,298.3906 1542.25,298.3906 Q1541.4844,298.3906 1540.8438,298.7188 Q1540.2188,299.0469 1539.7188,299.7969 Q1539.2344,300.5469 1539.2344,301.5781 L1539.2344,302.6719 Q1539.2344,303.9063 1540.125,304.7344 Q1541.0156,305.5469 1542.6094,305.5469 Q1543.5469,305.5469 1544.2031,305.2969 Q1544.5938,305.1406 1545.0156,304.7031 Q1545.2813,304.4375 1545.4219,304.3594 Q1545.5781,304.2813 1545.7813,304.2813 Q1546.1094,304.2813 1546.3594,304.5469 Q1546.625,304.7969 1546.625,305.1406 Q1546.625,305.4844 1546.2813,305.8906 Q1545.7813,306.4688 1544.9844,306.7969 Q1543.9063,307.25 1542.6094,307.25 Q1541.0938,307.25 1539.8906,306.625 Q1538.9063,306.125 1538.2188,305.0625 Q1537.5313,303.9844 1537.5313,302.7031 L1537.5313,301.5469 Q1537.5313,300.2188 1538.1406,299.0781 Q1538.7656,297.9219 1539.8594,297.3125 Q1540.9531,296.6875 1542.1875,296.6875 Q1542.9219,296.6875 1543.5625,296.8594 Q1544.2188,297.0156 1544.7656,297.375 Z " fill="#000000"/><text fill="#000000" font-family="sans-serif" font-size="14" lengthAdjust="spacing" textLength="119" x="1556" y="307.2285">HeaderComponent</text><line style="stroke:#181818;stroke-width:0.5;" x1="1528" x2="1677" y1="317.5" y2="317.5"/><line style="stroke:#181818;stroke-width:0.5;" x1="1528" x2="1677" y1="325.5" y2="325.5"/></g><!--class InvestmentInput--><g id="elem_InvestmentInput"><rect codeLine="31" fill="#F1F1F1" height="118.4375" id="InvestmentInput" rx="2.5" ry="2.5" style="stroke:#181818;stroke-width:0.5;" width="193" x="435" y="740"/><ellipse cx="477.9" cy="756" fill="#ADD1B2" rx="11" ry="11" style="stroke:#181818;stroke-width:1.0;"/><path d="M480.6656,751.875 Q480.8219,751.6563 481.0094,751.5469 Q481.1969,751.4375 481.4156,751.4375 Q481.7906,751.4375 482.025,751.7031 Q482.2594,751.9531 482.2594,752.5625 L482.2594,754.0156 Q482.2594,754.625 482.025,754.8906 Q481.7906,755.1563 481.4156,755.1563 Q481.0719,755.1563 480.8688,754.9531 Q480.6656,754.7656 480.5563,754.25 Q480.5094,753.8906 480.3219,753.7031 Q479.9938,753.3281 479.3844,753.1094 Q478.775,752.8906 478.15,752.8906 Q477.3844,752.8906 476.7438,753.2188 Q476.1188,753.5469 475.6188,754.2969 Q475.1344,755.0469 475.1344,756.0781 L475.1344,757.1719 Q475.1344,758.4063 476.025,759.2344 Q476.9156,760.0469 478.5094,760.0469 Q479.4469,760.0469 480.1031,759.7969 Q480.4938,759.6406 480.9156,759.2031 Q481.1813,758.9375 481.3219,758.8594 Q481.4781,758.7813 481.6813,758.7813 Q482.0094,758.7813 482.2594,759.0469 Q482.525,759.2969 482.525,759.6406 Q482.525,759.9844 482.1813,760.3906 Q481.6813,760.9688 480.8844,761.2969 Q479.8063,761.75 478.5094,761.75 Q476.9938,761.75 475.7906,761.125 Q474.8063,760.625 474.1188,759.5625 Q473.4313,758.4844 473.4313,757.2031 L473.4313,756.0469 Q473.4313,754.7188 474.0406,753.5781 Q474.6656,752.4219 475.7594,751.8125 Q476.8531,751.1875 478.0875,751.1875 Q478.8219,751.1875 479.4625,751.3594 Q480.1188,751.5156 480.6656,751.875 Z " fill="#000000"/><text fill="#000000" font-family="sans-serif" font-size="14" lengthAdjust="spacing" textLength="99" x="498.1" y="761.7285">InvestmentInput</text><line style="stroke:#181818;stroke-width:0.5;" x1="436" x2="627" y1="772" y2="772"/><ellipse cx="446" cy="786.3047" fill="none" rx="3" ry="3" style="stroke:#038048;stroke-width:1.0;"/><text fill="#000000" font-family="sans-serif" font-size="14" lengthAdjust="spacing" textLength="156" x="455" y="790.5332">initialInvestment: number</text><ellipse cx="446" cy="803.9141" fill="none" rx="3" ry="3" style="stroke:#038048;stroke-width:1.0;"/><text fill="#000000" font-family="sans-serif" font-size="14" lengthAdjust="spacing" textLength="167" x="455" y="808.1426">annualInvestment: number</text><ellipse cx="446" cy="821.5234" fill="none" rx="3" ry="3" style="stroke:#038048;stroke-width:1.0;"/><text fill="#000000" font-family="sans-serif" font-size="14" lengthAdjust="spacing" textLength="156" x="455" y="825.752">expectedReturn: number</text><ellipse cx="446" cy="839.1328" fill="none" rx="3" ry="3" style="stroke:#038048;stroke-width:1.0;"/><text fill="#000000" font-family="sans-serif" font-size="14" lengthAdjust="spacing" textLength="108" x="455" y="843.3613">duration: number</text><line style="stroke:#181818;stroke-width:0.5;" x1="436" x2="627" y1="850.4375" y2="850.4375"/></g><!--class InvestmentResult--><g id="elem_InvestmentResult"><rect codeLine="38" fill="#F1F1F1" height="153.6563" id="InvestmentResult" rx="2.5" ry="2.5" style="stroke:#181818;stroke-width:0.5;" width="210" x="663.5" y="722"/><ellipse cx="710.25" cy="738" fill="#ADD1B2" rx="11" ry="11" style="stroke:#181818;stroke-width:1.0;"/><path d="M713.0156,733.875 Q713.1719,733.6563 713.3594,733.5469 Q713.5469,733.4375 713.7656,733.4375 Q714.1406,733.4375 714.375,733.7031 Q714.6094,733.9531 714.6094,734.5625 L714.6094,736.0156 Q714.6094,736.625 714.375,736.8906 Q714.1406,737.1563 713.7656,737.1563 Q713.4219,737.1563 713.2188,736.9531 Q713.0156,736.7656 712.9063,736.25 Q712.8594,735.8906 712.6719,735.7031 Q712.3438,735.3281 711.7344,735.1094 Q711.125,734.8906 710.5,734.8906 Q709.7344,734.8906 709.0938,735.2188 Q708.4688,735.5469 707.9688,736.2969 Q707.4844,737.0469 707.4844,738.0781 L707.4844,739.1719 Q707.4844,740.4063 708.375,741.2344 Q709.2656,742.0469 710.8594,742.0469 Q711.7969,742.0469 712.4531,741.7969 Q712.8438,741.6406 713.2656,741.2031 Q713.5313,740.9375 713.6719,740.8594 Q713.8281,740.7813 714.0313,740.7813 Q714.3594,740.7813 714.6094,741.0469 Q714.875,741.2969 714.875,741.6406 Q714.875,741.9844 714.5313,742.3906 Q714.0313,742.9688 713.2344,743.2969 Q712.1563,743.75 710.8594,743.75 Q709.3438,743.75 708.1406,743.125 Q707.1563,742.625 706.4688,741.5625 Q705.7813,740.4844 705.7813,739.2031 L705.7813,738.0469 Q705.7813,736.7188 706.3906,735.5781 Q707.0156,734.4219 708.1094,733.8125 Q709.2031,733.1875 710.4375,733.1875 Q711.1719,733.1875 711.8125,733.3594 Q712.4688,733.5156 713.0156,733.875 Z " fill="#000000"/><text fill="#000000" font-family="sans-serif" font-size="14" lengthAdjust="spacing" textLength="108" x="730.75" y="743.7285">InvestmentResult</text><line style="stroke:#181818;stroke-width:0.5;" x1="664.5" x2="872.5" y1="754" y2="754"/><ellipse cx="674.5" cy="768.3047" fill="none" rx="3" ry="3" style="stroke:#038048;stroke-width:1.0;"/><text fill="#000000" font-family="sans-serif" font-size="14" lengthAdjust="spacing" textLength="84" x="683.5" y="772.5332">year: number</text><ellipse cx="674.5" cy="785.9141" fill="none" rx="3" ry="3" style="stroke:#038048;stroke-width:1.0;"/><text fill="#000000" font-family="sans-serif" font-size="14" lengthAdjust="spacing" textLength="103" x="683.5" y="790.1426">interest: number</text><ellipse cx="674.5" cy="803.5234" fill="none" rx="3" ry="3" style="stroke:#038048;stroke-width:1.0;"/><text fill="#000000" font-family="sans-serif" font-size="14" lengthAdjust="spacing" textLength="160" x="683.5" y="807.752">valueEndOfYear: number</text><ellipse cx="674.5" cy="821.1328" fill="none" rx="3" ry="3" style="stroke:#038048;stroke-width:1.0;"/><text fill="#000000" font-family="sans-serif" font-size="14" lengthAdjust="spacing" textLength="167" x="683.5" y="825.3613">annualInvestment: number</text><ellipse cx="674.5" cy="838.7422" fill="none" rx="3" ry="3" style="stroke:#038048;stroke-width:1.0;"/><text fill="#000000" font-family="sans-serif" font-size="14" lengthAdjust="spacing" textLength="130" x="683.5" y="842.9707">totalInterest: number</text><ellipse cx="674.5" cy="856.3516" fill="none" rx="3" ry="3" style="stroke:#038048;stroke-width:1.0;"/><text fill="#000000" font-family="sans-serif" font-size="14" lengthAdjust="spacing" textLength="184" x="683.5" y="860.5801">totalAmountInvested: number</text><line style="stroke:#181818;stroke-width:0.5;" x1="664.5" x2="872.5" y1="867.6563" y2="867.6563"/></g><!--class AppComponentTemplate--><g id="elem_AppComponentTemplate"><rect codeLine="47" fill="#F1F1F1" height="100.8281" id="AppComponentTemplate" rx="2.5" ry="2.5" style="stroke:#181818;stroke-width:0.5;" width="170" x="673.5" y="259"/><ellipse cx="693" cy="275" fill="#ADD1B2" rx="11" ry="11" style="stroke:#181818;stroke-width:1.0;"/><path d="M695.7656,270.875 Q695.9219,270.6563 696.1094,270.5469 Q696.2969,270.4375 696.5156,270.4375 Q696.8906,270.4375 697.125,270.7031 Q697.3594,270.9531 697.3594,271.5625 L697.3594,273.0156 Q697.3594,273.625 697.125,273.8906 Q696.8906,274.1563 696.5156,274.1563 Q696.1719,274.1563 695.9688,273.9531 Q695.7656,273.7656 695.6563,273.25 Q695.6094,272.8906 695.4219,272.7031 Q695.0938,272.3281 694.4844,272.1094 Q693.875,271.8906 693.25,271.8906 Q692.4844,271.8906 691.8438,272.2188 Q691.2188,272.5469 690.7188,273.2969 Q690.2344,274.0469 690.2344,275.0781 L690.2344,276.1719 Q690.2344,277.4063 691.125,278.2344 Q692.0156,279.0469 693.6094,279.0469 Q694.5469,279.0469 695.2031,278.7969 Q695.5938,278.6406 696.0156,278.2031 Q696.2813,277.9375 696.4219,277.8594 Q696.5781,277.7813 696.7813,277.7813 Q697.1094,277.7813 697.3594,278.0469 Q697.625,278.2969 697.625,278.6406 Q697.625,278.9844 697.2813,279.3906 Q696.7813,279.9688 695.9844,280.2969 Q694.9063,280.75 693.6094,280.75 Q692.0938,280.75 690.8906,280.125 Q689.9063,279.625 689.2188,278.5625 Q688.5313,277.4844 688.5313,276.2031 L688.5313,275.0469 Q688.5313,273.7188 689.1406,272.5781 Q689.7656,271.4219 690.8594,270.8125 Q691.9531,270.1875 693.1875,270.1875 Q693.9219,270.1875 694.5625,270.3594 Q695.2188,270.5156 695.7656,270.875 Z " fill="#000000"/><text fill="#000000" font-family="sans-serif" font-size="14" lengthAdjust="spacing" textLength="128" x="708" y="280.7285">app.component.html</text><line style="stroke:#181818;stroke-width:0.5;" x1="674.5" x2="842.5" y1="291" y2="291"/><ellipse cx="684.5" cy="305.3047" fill="none" rx="3" ry="3" style="stroke:#038048;stroke-width:1.0;"/><text fill="#000000" font-family="sans-serif" font-size="14" lengthAdjust="spacing" textLength="74" x="693.5" y="309.5332">app-header</text><ellipse cx="684.5" cy="322.9141" fill="none" rx="3" ry="3" style="stroke:#038048;stroke-width:1.0;"/><text fill="#000000" font-family="sans-serif" font-size="14" lengthAdjust="spacing" textLength="93" x="693.5" y="327.1426">app-user-input</text><ellipse cx="684.5" cy="340.5234" fill="none" rx="3" ry="3" style="stroke:#038048;stroke-width:1.0;"/><text fill="#000000" font-family="sans-serif" font-size="14" lengthAdjust="spacing" textLength="144" x="693.5" y="344.752">app-investment-results</text><line style="stroke:#181818;stroke-width:0.5;" x1="674.5" x2="842.5" y1="351.8281" y2="351.8281"/></g><!--class UserInputComponentTemplate--><g id="elem_UserInputComponentTemplate"><rect codeLine="53" fill="#F1F1F1" height="153.6563" id="UserInputComponentTemplate" rx="2.5" ry="2.5" style="stroke:#181818;stroke-width:0.5;" width="375" x="7" y="464"/><ellipse cx="106.25" cy="480" fill="#ADD1B2" rx="11" ry="11" style="stroke:#181818;stroke-width:1.0;"/><path d="M109.0156,475.875 Q109.1719,475.6563 109.3594,475.5469 Q109.5469,475.4375 109.7656,475.4375 Q110.1406,475.4375 110.375,475.7031 Q110.6094,475.9531 110.6094,476.5625 L110.6094,478.0156 Q110.6094,478.625 110.375,478.8906 Q110.1406,479.1563 109.7656,479.1563 Q109.4219,479.1563 109.2188,478.9531 Q109.0156,478.7656 108.9063,478.25 Q108.8594,477.8906 108.6719,477.7031 Q108.3438,477.3281 107.7344,477.1094 Q107.125,476.8906 106.5,476.8906 Q105.7344,476.8906 105.0938,477.2188 Q104.4688,477.5469 103.9688,478.2969 Q103.4844,479.0469 103.4844,480.0781 L103.4844,481.1719 Q103.4844,482.4063 104.375,483.2344 Q105.2656,484.0469 106.8594,484.0469 Q107.7969,484.0469 108.4531,483.7969 Q108.8438,483.6406 109.2656,483.2031 Q109.5313,482.9375 109.6719,482.8594 Q109.8281,482.7813 110.0313,482.7813 Q110.3594,482.7813 110.6094,483.0469 Q110.875,483.2969 110.875,483.6406 Q110.875,483.9844 110.5313,484.3906 Q110.0313,484.9688 109.2344,485.2969 Q108.1563,485.75 106.8594,485.75 Q105.3438,485.75 104.1406,485.125 Q103.1563,484.625 102.4688,483.5625 Q101.7813,482.4844 101.7813,481.2031 L101.7813,480.0469 Q101.7813,478.7188 102.3906,477.5781 Q103.0156,476.4219 104.1094,475.8125 Q105.2031,475.1875 106.4375,475.1875 Q107.1719,475.1875 107.8125,475.3594 Q108.4688,475.5156 109.0156,475.875 Z " fill="#000000"/><text fill="#000000" font-family="sans-serif" font-size="14" lengthAdjust="spacing" textLength="168" x="126.75" y="485.7285">user-input.component.html</text><line style="stroke:#181818;stroke-width:0.5;" x1="8" x2="381" y1="496" y2="496"/><ellipse cx="18" cy="510.3047" fill="none" rx="3" ry="3" style="stroke:#038048;stroke-width:1.0;"/><text fill="#000000" font-family="sans-serif" font-size="14" lengthAdjust="spacing" textLength="130" x="27" y="514.5332">button type="submit"</text><line style="stroke:#181818;stroke-width:0.5;" x1="8" x2="381" y1="521.6094" y2="521.6094"/><ellipse cx="18" cy="535.9141" fill="#84BE84" rx="3" ry="3" style="stroke:#038048;stroke-width:1.0;"/><text fill="#000000" font-family="sans-serif" font-size="14" lengthAdjust="spacing" textLength="188" x="27" y="540.1426">form (ngSubmit)="onSubmit()"</text><ellipse cx="18" cy="553.5234" fill="#84BE84" rx="3" ry="3" style="stroke:#038048;stroke-width:1.0;"/><text fill="#000000" font-family="sans-serif" font-size="14" lengthAdjust="spacing" textLength="338" x="27" y="557.752">input [(ngModel)]="investmentInput().initialInvestment"</text><ellipse cx="18" cy="571.1328" fill="#84BE84" rx="3" ry="3" style="stroke:#038048;stroke-width:1.0;"/><text fill="#000000" font-family="sans-serif" font-size="14" lengthAdjust="spacing" textLength="349" x="27" y="575.3613">input [(ngModel)]="investmentInput().annualInvestment"</text><ellipse cx="18" cy="588.7422" fill="#84BE84" rx="3" ry="3" style="stroke:#038048;stroke-width:1.0;"/><text fill="#000000" font-family="sans-serif" font-size="14" lengthAdjust="spacing" textLength="338" x="27" y="592.9707">input [(ngModel)]="investmentInput().expectedReturn"</text><ellipse cx="18" cy="606.3516" fill="#84BE84" rx="3" ry="3" style="stroke:#038048;stroke-width:1.0;"/><text fill="#000000" font-family="sans-serif" font-size="14" lengthAdjust="spacing" textLength="290" x="27" y="610.5801">input [(ngModel)]="investmentInput().duration"</text></g><!--class InvestmentResultsComponentTemplate--><g id="elem_InvestmentResultsComponentTemplate"><rect codeLine="62" fill="#F1F1F1" height="206.4844" id="InvestmentResultsComponentTemplate" rx="2.5" ry="2.5" style="stroke:#181818;stroke-width:0.5;" width="465" x="919" y="438"/><ellipse cx="1037.75" cy="454" fill="#ADD1B2" rx="11" ry="11" style="stroke:#181818;stroke-width:1.0;"/><path d="M1040.5156,449.875 Q1040.6719,449.6563 1040.8594,449.5469 Q1041.0469,449.4375 1041.2656,449.4375 Q1041.6406,449.4375 1041.875,449.7031 Q1042.1094,449.9531 1042.1094,450.5625 L1042.1094,452.0156 Q1042.1094,452.625 1041.875,452.8906 Q1041.6406,453.1563 1041.2656,453.1563 Q1040.9219,453.1563 1040.7188,452.9531 Q1040.5156,452.7656 1040.4063,452.25 Q1040.3594,451.8906 1040.1719,451.7031 Q1039.8438,451.3281 1039.2344,451.1094 Q1038.625,450.8906 1038,450.8906 Q1037.2344,450.8906 1036.5938,451.2188 Q1035.9688,451.5469 1035.4688,452.2969 Q1034.9844,453.0469 1034.9844,454.0781 L1034.9844,455.1719 Q1034.9844,456.4063 1035.875,457.2344 Q1036.7656,458.0469 1038.3594,458.0469 Q1039.2969,458.0469 1039.9531,457.7969 Q1040.3438,457.6406 1040.7656,457.2031 Q1041.0313,456.9375 1041.1719,456.8594 Q1041.3281,456.7813 1041.5313,456.7813 Q1041.8594,456.7813 1042.1094,457.0469 Q1042.375,457.2969 1042.375,457.6406 Q1042.375,457.9844 1042.0313,458.3906 Q1041.5313,458.9688 1040.7344,459.2969 Q1039.6563,459.75 1038.3594,459.75 Q1036.8438,459.75 1035.6406,459.125 Q1034.6563,458.625 1033.9688,457.5625 Q1033.2813,456.4844 1033.2813,455.2031 L1033.2813,454.0469 Q1033.2813,452.7188 1033.8906,451.5781 Q1034.5156,450.4219 1035.6094,449.8125 Q1036.7031,449.1875 1037.9375,449.1875 Q1038.6719,449.1875 1039.3125,449.3594 Q1039.9688,449.5156 1040.5156,449.875 Z " fill="#000000"/><text fill="#000000" font-family="sans-serif" font-size="14" lengthAdjust="spacing" textLength="219" x="1058.25" y="459.7285">investment-results.component.html</text><line style="stroke:#181818;stroke-width:0.5;" x1="920" x2="1383" y1="470" y2="470"/><ellipse cx="930" cy="484.3047" fill="none" rx="3" ry="3" style="stroke:#038048;stroke-width:1.0;"/><text fill="#000000" font-family="sans-serif" font-size="14" lengthAdjust="spacing" textLength="31" x="939" y="488.5332">table</text><ellipse cx="930" cy="501.9141" fill="none" rx="3" ry="3" style="stroke:#038048;stroke-width:1.0;"/><text fill="#000000" font-family="sans-serif" font-size="14" lengthAdjust="spacing" textLength="36" x="939" y="506.1426">thead</text><ellipse cx="930" cy="519.5234" fill="none" rx="3" ry="3" style="stroke:#038048;stroke-width:1.0;"/><text fill="#000000" font-family="sans-serif" font-size="14" lengthAdjust="spacing" textLength="104" x="939" y="523.752">td {{ data.year }}</text><ellipse cx="930" cy="537.1328" fill="none" rx="3" ry="3" style="stroke:#038048;stroke-width:1.0;"/><text fill="#000000" font-family="sans-serif" font-size="14" lengthAdjust="spacing" textLength="235" x="939" y="541.3613">td {{ data.interest | currency : 'EUR' }}</text><ellipse cx="930" cy="554.7422" fill="none" rx="3" ry="3" style="stroke:#038048;stroke-width:1.0;"/><text fill="#000000" font-family="sans-serif" font-size="14" lengthAdjust="spacing" textLength="292" x="939" y="558.9707">td {{ data.valueEndOfYear | currency : 'EUR' }}</text><ellipse cx="930" cy="572.3516" fill="none" rx="3" ry="3" style="stroke:#038048;stroke-width:1.0;"/><text fill="#000000" font-family="sans-serif" font-size="14" lengthAdjust="spacing" textLength="262" x="939" y="576.5801">td {{ data.totalInterest | currency : 'EUR' }}</text><ellipse cx="930" cy="589.9609" fill="none" rx="3" ry="3" style="stroke:#038048;stroke-width:1.0;"/><text fill="#000000" font-family="sans-serif" font-size="14" lengthAdjust="spacing" textLength="316" x="939" y="594.1895">td {{ data.totalAmountInvested | currency : 'EUR' }}</text><line style="stroke:#181818;stroke-width:0.5;" x1="920" x2="1383" y1="601.2656" y2="601.2656"/><ellipse cx="930" cy="615.5703" fill="#84BE84" rx="3" ry="3" style="stroke:#038048;stroke-width:1.0;"/><text fill="#000000" font-family="sans-serif" font-size="14" lengthAdjust="spacing" textLength="439" x="939" y="619.7988">@if (!annualInvestmentResults()) { "No investment results available." }</text><ellipse cx="930" cy="633.1797" fill="#84BE84" rx="3" ry="3" style="stroke:#038048;stroke-width:1.0;"/><text fill="#000000" font-family="sans-serif" font-size="14" lengthAdjust="spacing" textLength="335" x="939" y="637.4082">tbody *ngFor="let data of annualInvestmentResults()"</text></g><!--class HeaderComponentTemplate--><g id="elem_HeaderComponentTemplate"><rect codeLine="74" fill="#F1F1F1" height="100.8281" id="HeaderComponentTemplate" rx="2.5" ry="2.5" style="stroke:#181818;stroke-width:0.5;" width="283" x="1461" y="490.5"/><ellipse cx="1523.75" cy="506.5" fill="#ADD1B2" rx="11" ry="11" style="stroke:#181818;stroke-width:1.0;"/><path d="M1526.5156,502.375 Q1526.6719,502.1563 1526.8594,502.0469 Q1527.0469,501.9375 1527.2656,501.9375 Q1527.6406,501.9375 1527.875,502.2031 Q1528.1094,502.4531 1528.1094,503.0625 L1528.1094,504.5156 Q1528.1094,505.125 1527.875,505.3906 Q1527.6406,505.6563 1527.2656,505.6563 Q1526.9219,505.6563 1526.7188,505.4531 Q1526.5156,505.2656 1526.4063,504.75 Q1526.3594,504.3906 1526.1719,504.2031 Q1525.8438,503.8281 1525.2344,503.6094 Q1524.625,503.3906 1524,503.3906 Q1523.2344,503.3906 1522.5938,503.7188 Q1521.9688,504.0469 1521.4688,504.7969 Q1520.9844,505.5469 1520.9844,506.5781 L1520.9844,507.6719 Q1520.9844,508.9063 1521.875,509.7344 Q1522.7656,510.5469 1524.3594,510.5469 Q1525.2969,510.5469 1525.9531,510.2969 Q1526.3438,510.1406 1526.7656,509.7031 Q1527.0313,509.4375 1527.1719,509.3594 Q1527.3281,509.2813 1527.5313,509.2813 Q1527.8594,509.2813 1528.1094,509.5469 Q1528.375,509.7969 1528.375,510.1406 Q1528.375,510.4844 1528.0313,510.8906 Q1527.5313,511.4688 1526.7344,511.7969 Q1525.6563,512.25 1524.3594,512.25 Q1522.8438,512.25 1521.6406,511.625 Q1520.6563,511.125 1519.9688,510.0625 Q1519.2813,508.9844 1519.2813,507.7031 L1519.2813,506.5469 Q1519.2813,505.2188 1519.8906,504.0781 Q1520.5156,502.9219 1521.6094,502.3125 Q1522.7031,501.6875 1523.9375,501.6875 Q1524.6719,501.6875 1525.3125,501.8594 Q1525.9688,502.0156 1526.5156,502.375 Z " fill="#000000"/><text fill="#000000" font-family="sans-serif" font-size="14" lengthAdjust="spacing" textLength="149" x="1544.25" y="512.2285">header.component.html</text><line style="stroke:#181818;stroke-width:0.5;" x1="1462" x2="1743" y1="522.5" y2="522.5"/><ellipse cx="1472" cy="536.8047" fill="none" rx="3" ry="3" style="stroke:#038048;stroke-width:1.0;"/><text fill="#000000" font-family="sans-serif" font-size="14" lengthAdjust="spacing" textLength="45" x="1481" y="541.0332">header</text><ellipse cx="1472" cy="554.4141" fill="none" rx="3" ry="3" style="stroke:#038048;stroke-width:1.0;"/><text fill="#000000" font-family="sans-serif" font-size="14" lengthAdjust="spacing" textLength="257" x="1481" y="558.6426">img src="investment-calculator-logo.png"</text><ellipse cx="1472" cy="572.0234" fill="none" rx="3" ry="3" style="stroke:#038048;stroke-width:1.0;"/><text fill="#000000" font-family="sans-serif" font-size="14" lengthAdjust="spacing" textLength="156" x="1481" y="576.252">h1 Investment Calculator</text><line style="stroke:#181818;stroke-width:0.5;" x1="1462" x2="1743" y1="583.3281" y2="583.3281"/></g><!--class BrowserModule--><g id="elem_BrowserModule"><rect fill="#F1F1F1" height="48" id="BrowserModule" rx="2.5" ry="2.5" style="stroke:#181818;stroke-width:0.5;" width="129" x="1580" y="133"/><ellipse cx="1595" cy="149" fill="#ADD1B2" rx="11" ry="11" style="stroke:#181818;stroke-width:1.0;"/><path d="M1597.7656,144.875 Q1597.9219,144.6563 1598.1094,144.5469 Q1598.2969,144.4375 1598.5156,144.4375 Q1598.8906,144.4375 1599.125,144.7031 Q1599.3594,144.9531 1599.3594,145.5625 L1599.3594,147.0156 Q1599.3594,147.625 1599.125,147.8906 Q1598.8906,148.1563 1598.5156,148.1563 Q1598.1719,148.1563 1597.9688,147.9531 Q1597.7656,147.7656 1597.6563,147.25 Q1597.6094,146.8906 1597.4219,146.7031 Q1597.0938,146.3281 1596.4844,146.1094 Q1595.875,145.8906 1595.25,145.8906 Q1594.4844,145.8906 1593.8438,146.2188 Q1593.2188,146.5469 1592.7188,147.2969 Q1592.2344,148.0469 1592.2344,149.0781 L1592.2344,150.1719 Q1592.2344,151.4063 1593.125,152.2344 Q1594.0156,153.0469 1595.6094,153.0469 Q1596.5469,153.0469 1597.2031,152.7969 Q1597.5938,152.6406 1598.0156,152.2031 Q1598.2813,151.9375 1598.4219,151.8594 Q1598.5781,151.7813 1598.7813,151.7813 Q1599.1094,151.7813 1599.3594,152.0469 Q1599.625,152.2969 1599.625,152.6406 Q1599.625,152.9844 1599.2813,153.3906 Q1598.7813,153.9688 1597.9844,154.2969 Q1596.9063,154.75 1595.6094,154.75 Q1594.0938,154.75 1592.8906,154.125 Q1591.9063,153.625 1591.2188,152.5625 Q1590.5313,151.4844 1590.5313,150.2031 L1590.5313,149.0469 Q1590.5313,147.7188 1591.1406,146.5781 Q1591.7656,145.4219 1592.8594,144.8125 Q1593.9531,144.1875 1595.1875,144.1875 Q1595.9219,144.1875 1596.5625,144.3594 Q1597.2188,144.5156 1597.7656,144.875 Z " fill="#000000"/><text fill="#000000" font-family="sans-serif" font-size="14" lengthAdjust="spacing" textLength="97" x="1609" y="154.7285">BrowserModule</text><line style="stroke:#181818;stroke-width:0.5;" x1="1581" x2="1708" y1="165" y2="165"/><line style="stroke:#181818;stroke-width:0.5;" x1="1581" x2="1708" y1="173" y2="173"/></g><!--class FormsModule--><g id="elem_FormsModule"><rect fill="#F1F1F1" height="48" id="FormsModule" rx="2.5" ry="2.5" style="stroke:#181818;stroke-width:0.5;" width="118" x="199.5" y="285.5"/><ellipse cx="214.5" cy="301.5" fill="#ADD1B2" rx="11" ry="11" style="stroke:#181818;stroke-width:1.0;"/><path d="M217.2656,297.375 Q217.4219,297.1563 217.6094,297.0469 Q217.7969,296.9375 218.0156,296.9375 Q218.3906,296.9375 218.625,297.2031 Q218.8594,297.4531 218.8594,298.0625 L218.8594,299.5156 Q218.8594,300.125 218.625,300.3906 Q218.3906,300.6563 218.0156,300.6563 Q217.6719,300.6563 217.4688,300.4531 Q217.2656,300.2656 217.1563,299.75 Q217.1094,299.3906 216.9219,299.2031 Q216.5938,298.8281 215.9844,298.6094 Q215.375,298.3906 214.75,298.3906 Q213.9844,298.3906 213.3438,298.7188 Q212.7188,299.0469 212.2188,299.7969 Q211.7344,300.5469 211.7344,301.5781 L211.7344,302.6719 Q211.7344,303.9063 212.625,304.7344 Q213.5156,305.5469 215.1094,305.5469 Q216.0469,305.5469 216.7031,305.2969 Q217.0938,305.1406 217.5156,304.7031 Q217.7813,304.4375 217.9219,304.3594 Q218.0781,304.2813 218.2813,304.2813 Q218.6094,304.2813 218.8594,304.5469 Q219.125,304.7969 219.125,305.1406 Q219.125,305.4844 218.7813,305.8906 Q218.2813,306.4688 217.4844,306.7969 Q216.4063,307.25 215.1094,307.25 Q213.5938,307.25 212.3906,306.625 Q211.4063,306.125 210.7188,305.0625 Q210.0313,303.9844 210.0313,302.7031 L210.0313,301.5469 Q210.0313,300.2188 210.6406,299.0781 Q211.2656,297.9219 212.3594,297.3125 Q213.4531,296.6875 214.6875,296.6875 Q215.4219,296.6875 216.0625,296.8594 Q216.7188,297.0156 217.2656,297.375 Z " fill="#000000"/><text fill="#000000" font-family="sans-serif" font-size="14" lengthAdjust="spacing" textLength="86" x="228.5" y="307.2285">FormsModule</text><line style="stroke:#181818;stroke-width:0.5;" x1="200.5" x2="316.5" y1="317.5" y2="317.5"/><line style="stroke:#181818;stroke-width:0.5;" x1="200.5" x2="316.5" y1="325.5" y2="325.5"/></g><!--class CurrencyPipe--><g id="elem_CurrencyPipe"><rect fill="#F1F1F1" height="48" id="CurrencyPipe" rx="2.5" ry="2.5" style="stroke:#181818;stroke-width:0.5;" width="118" x="1373.5" y="285.5"/><ellipse cx="1388.5" cy="301.5" fill="#ADD1B2" rx="11" ry="11" style="stroke:#181818;stroke-width:1.0;"/><path d="M1391.2656,297.375 Q1391.4219,297.1563 1391.6094,297.0469 Q1391.7969,296.9375 1392.0156,296.9375 Q1392.3906,296.9375 1392.625,297.2031 Q1392.8594,297.4531 1392.8594,298.0625 L1392.8594,299.5156 Q1392.8594,300.125 1392.625,300.3906 Q1392.3906,300.6563 1392.0156,300.6563 Q1391.6719,300.6563 1391.4688,300.4531 Q1391.2656,300.2656 1391.1563,299.75 Q1391.1094,299.3906 1390.9219,299.2031 Q1390.5938,298.8281 1389.9844,298.6094 Q1389.375,298.3906 1388.75,298.3906 Q1387.9844,298.3906 1387.3438,298.7188 Q1386.7188,299.0469 1386.2188,299.7969 Q1385.7344,300.5469 1385.7344,301.5781 L1385.7344,302.6719 Q1385.7344,303.9063 1386.625,304.7344 Q1387.5156,305.5469 1389.1094,305.5469 Q1390.0469,305.5469 1390.7031,305.2969 Q1391.0938,305.1406 1391.5156,304.7031 Q1391.7813,304.4375 1391.9219,304.3594 Q1392.0781,304.2813 1392.2813,304.2813 Q1392.6094,304.2813 1392.8594,304.5469 Q1393.125,304.7969 1393.125,305.1406 Q1393.125,305.4844 1392.7813,305.8906 Q1392.2813,306.4688 1391.4844,306.7969 Q1390.4063,307.25 1389.1094,307.25 Q1387.5938,307.25 1386.3906,306.625 Q1385.4063,306.125 1384.7188,305.0625 Q1384.0313,303.9844 1384.0313,302.7031 L1384.0313,301.5469 Q1384.0313,300.2188 1384.6406,299.0781 Q1385.2656,297.9219 1386.3594,297.3125 Q1387.4531,296.6875 1388.6875,296.6875 Q1389.4219,296.6875 1390.0625,296.8594 Q1390.7188,297.0156 1391.2656,297.375 Z " fill="#000000"/><text fill="#000000" font-family="sans-serif" font-size="14" lengthAdjust="spacing" textLength="86" x="1402.5" y="307.2285">CurrencyPipe</text><line style="stroke:#181818;stroke-width:0.5;" x1="1374.5" x2="1490.5" y1="317.5" y2="317.5"/><line style="stroke:#181818;stroke-width:0.5;" x1="1374.5" x2="1490.5" y1="325.5" y2="325.5"/></g><!--link InvestmentService to InvestmentInput--><g id="link_InvestmentService_InvestmentInput"><path codeLine="80" d="M631.64,582.56 C611.98,624.86 583.5089,686.109 561.2089,734.089 " fill="none" id="InvestmentService-to-InvestmentInput" style="stroke:#181818;stroke-width:1.0;"/><polygon fill="#181818" points="558.68,739.53,566.1007,733.0544,560.7874,734.9958,558.8459,729.6825,558.68,739.53" style="stroke:#181818;stroke-width:1.0;"/><text fill="#000000" font-family="sans-serif" font-size="13" lengthAdjust="spacing" textLength="28" x="588.5" y="688.4951">uses</text></g><!--link InvestmentService to InvestmentResult--><g id="link_InvestmentService_InvestmentResult"><path codeLine="81" d="M669.2,582.56 C686.39,619.85 709.8089,670.6607 730.8589,716.3407 " fill="none" id="InvestmentService-to-InvestmentResult" style="stroke:#181818;stroke-width:1.0;"/><polygon fill="#181818" points="733.37,721.79,733.2362,711.9421,731.2774,717.249,725.9705,715.2902,733.37,721.79" style="stroke:#181818;stroke-width:1.0;"/><text fill="#000000" font-family="sans-serif" font-size="13" lengthAdjust="spacing" textLength="28" x="718.5" y="688.4951">uses</text></g><!--link AppModule to AppComponent--><g id="link_AppModule_AppComponent"><path codeLine="83" d="M1280.31,55.03 C1242.53,77.24 1190.843,107.6102 1153.013,129.8402 " fill="none" id="AppModule-to-AppComponent" style="stroke:#181818;stroke-width:1.0;"/><polygon fill="#181818" points="1147.84,132.88,1157.626,131.769,1152.1508,130.3468,1153.5729,124.8717,1147.84,132.88" style="stroke:#181818;stroke-width:1.0;"/><text fill="#000000" font-family="sans-serif" font-size="13" lengthAdjust="spacing" textLength="49" x="1228.5" y="99.4951">declares</text></g><!--link AppModule to HeaderComponent--><g id="link_AppModule_HeaderComponent"><path codeLine="84" d="M1346.76,55.09 C1370.2,75.19 1404.69,105.36 1433.5,133 C1488.44,185.71 1545.6012,246.6504 1577.1212,280.8104 " fill="none" id="AppModule-to-HeaderComponent" style="stroke:#181818;stroke-width:1.0;"/><polygon fill="#181818" points="1581.19,285.22,1578.0265,275.893,1577.7993,281.5453,1572.147,281.3181,1581.19,285.22" style="stroke:#181818;stroke-width:1.0;"/><text fill="#000000" font-family="sans-serif" font-size="13" lengthAdjust="spacing" textLength="49" x="1482.5" y="162.4951">declares</text></g><!--link AppModule to BrowserModule--><g id="link_AppModule_BrowserModule"><path codeLine="85" d="M1371.23,41.87 C1412.33,50.62 1470.78,65.1 1519.5,85 C1551.38,98.02 1580.137,114.452 1604.547,129.762 " fill="none" id="AppModule-to-BrowserModule" style="stroke:#181818;stroke-width:1.0;"/><polygon fill="#181818" points="1609.63,132.95,1604.1309,124.7793,1605.3942,130.2933,1599.8802,131.5566,1609.63,132.95" style="stroke:#181818;stroke-width:1.0;"/><text fill="#000000" font-family="sans-serif" font-size="13" lengthAdjust="spacing" textLength="43" x="1556.5" y="99.4951">imports</text></g><!--link AppModule to InvestmentResultsModule--><g id="link_AppModule_InvestmentResultsModule"><path codeLine="86" d="M1319.5,55.03 C1319.5,77.17 1319.5,104.44 1319.5,126.67 " fill="none" id="AppModule-to-InvestmentResultsModule" style="stroke:#181818;stroke-width:1.0;"/><polygon fill="#181818" points="1319.5,132.67,1323.5,123.67,1319.5,127.67,1315.5,123.67,1319.5,132.67" style="stroke:#181818;stroke-width:1.0;"/><text fill="#000000" font-family="sans-serif" font-size="13" lengthAdjust="spacing" textLength="43" x="1320.5" y="99.4951">imports</text></g><!--link AppModule to UserInputModule--><g id="link_AppModule_UserInputModule"><path codeLine="87" d="M1267.96,39.76 C1125.44,61.2 731.9032,120.4274 570.4432,144.7174 " fill="none" id="AppModule-to-UserInputModule" style="stroke:#181818;stroke-width:1.0;"/><polygon fill="#181818" points="564.51,145.61,574.0049,148.2266,569.4544,144.8662,572.8148,140.3156,564.51,145.61" style="stroke:#181818;stroke-width:1.0;"/><text fill="#000000" font-family="sans-serif" font-size="13" lengthAdjust="spacing" textLength="43" x="958.5" y="99.4951">imports</text></g><!--link UserInputModule to UserInputComponent--><g id="link_UserInputModule_UserInputComponent"><path codeLine="89" d="M495.5,181.19 C495.5,204.27 495.5,234.18 495.5,261.99 " fill="none" id="UserInputModule-to-UserInputComponent" style="stroke:#181818;stroke-width:1.0;"/><polygon fill="#181818" points="495.5,267.99,499.5,258.99,495.5,262.99,491.5,258.99,495.5,267.99" style="stroke:#181818;stroke-width:1.0;"/><text fill="#000000" font-family="sans-serif" font-size="13" lengthAdjust="spacing" textLength="49" x="496.5" y="225.4951">declares</text></g><!--link UserInputModule to FormsModule--><g id="link_UserInputModule_FormsModule"><path codeLine="90" d="M458.59,181.18 C426.12,201.6 377.61,232.17 335.5,259 C322.1,267.54 312.4663,273.7143 299.5463,282.0243 " fill="none" id="UserInputModule-to-FormsModule" style="stroke:#181818;stroke-width:1.0;"/><polygon fill="#181818" points="294.5,285.27,304.2333,283.7656,298.7053,282.5652,299.9056,277.0372,294.5,285.27" style="stroke:#181818;stroke-width:1.0;"/><text fill="#000000" font-family="sans-serif" font-size="13" lengthAdjust="spacing" textLength="43" x="411.5" y="225.4951">imports</text></g><!--link InvestmentResultsModule to InvestmentResultsComponent--><g id="link_InvestmentResultsModule_InvestmentResultsComponent"><path codeLine="92" d="M1303.59,181.11 C1292.47,196.07 1276.61,215.25 1259.5,229 C1236.52,247.46 1213.9536,260.9008 1188.4036,273.7108 " fill="none" id="InvestmentResultsModule-to-InvestmentResultsComponent" style="stroke:#181818;stroke-width:1.0;"/><polygon fill="#181818" points="1183.04,276.4,1192.8782,275.942,1187.5097,274.159,1189.2927,268.7905,1183.04,276.4" style="stroke:#181818;stroke-width:1.0;"/><text fill="#000000" font-family="sans-serif" font-size="13" lengthAdjust="spacing" textLength="49" x="1279.5" y="225.4951">declares</text></g><!--link InvestmentResultsModule to CurrencyPipe--><g id="link_InvestmentResultsModule_CurrencyPipe"><path codeLine="93" d="M1336.91,181.19 C1358.08,209.39 1390.0167,251.9224 1411.2867,280.2424 " fill="none" id="InvestmentResultsModule-to-CurrencyPipe" style="stroke:#181818;stroke-width:1.0;"/><polygon fill="#181818" points="1414.89,285.04,1412.6835,275.4415,1411.8873,281.042,1406.2867,280.2458,1414.89,285.04" style="stroke:#181818;stroke-width:1.0;"/><text fill="#000000" font-family="sans-serif" font-size="13" lengthAdjust="spacing" textLength="43" x="1374.5" y="225.4951">imports</text></g><!--link AppComponent to AppComponentTemplate--><g id="link_AppComponent_AppComponentTemplate"><path codeLine="95" d="M1048.91,181.01 C998.39,200.81 924.19,230.61 860.5,259 C855.02,261.44 854.8332,261.4859 849.1832,264.1059 " fill="none" id="AppComponent-to-AppComponentTemplate" style="stroke:#181818;stroke-width:1.0;"/><polygon fill="#181818" points="843.74,266.63,853.5876,266.4726,848.276,264.5266,850.2221,259.215,843.74,266.63" style="stroke:#181818;stroke-width:1.0;"/><text fill="#000000" font-family="sans-serif" font-size="13" lengthAdjust="spacing" textLength="82" x="970.5" y="225.4951">uses template</text></g><!--link UserInputComponent to UserInputComponentTemplate--><g id="link_UserInputComponent_UserInputComponentTemplate"><path codeLine="96" d="M442.38,351 C401.45,382.21 348.4613,422.612 298.9913,460.332 " fill="none" id="UserInputComponent-to-UserInputComponentTemplate" style="stroke:#181818;stroke-width:1.0;"/><polygon fill="#181818" points="294.22,463.97,303.8022,461.6938,298.1961,460.9383,298.9516,455.3322,294.22,463.97" style="stroke:#181818;stroke-width:1.0;"/><text fill="#000000" font-family="sans-serif" font-size="13" lengthAdjust="spacing" textLength="82" x="391.5" y="404.4951">uses template</text></g><!--link InvestmentResultsComponent to InvestmentResultsComponentTemplate--><g id="link_InvestmentResultsComponent_InvestmentResultsComponentTemplate"><path codeLine="97" d="M1114.57,342.89 C1119.23,367.79 1124.8461,397.7224 1131.2661,432.0224 " fill="none" id="InvestmentResultsComponent-to-InvestmentResultsComponentTemplate" style="stroke:#181818;stroke-width:1.0;"/><polygon fill="#181818" points="1132.37,437.92,1134.6459,428.3377,1131.4501,433.0053,1126.7825,429.8095,1132.37,437.92" style="stroke:#181818;stroke-width:1.0;"/><text fill="#000000" font-family="sans-serif" font-size="13" lengthAdjust="spacing" textLength="82" x="1127.5" y="404.4951">uses template</text></g><!--link HeaderComponent to HeaderComponentTemplate--><g id="link_HeaderComponent_HeaderComponentTemplate"><path codeLine="98" d="M1602.5,333.77 C1602.5,370.23 1602.5,435.68 1602.5,484.13 " fill="none" id="HeaderComponent-to-HeaderComponentTemplate" style="stroke:#181818;stroke-width:1.0;"/><polygon fill="#181818" points="1602.5,490.13,1606.5,481.13,1602.5,485.13,1598.5,481.13,1602.5,490.13" style="stroke:#181818;stroke-width:1.0;"/><text fill="#000000" font-family="sans-serif" font-size="13" lengthAdjust="spacing" textLength="82" x="1603.5" y="404.4951">uses template</text></g><!--link AppComponent to HeaderComponent--><g id="link_AppComponent_HeaderComponent"><path codeLine="100" d="M1132.51,181.05 C1151.13,197.43 1178.41,218.33 1206.5,229 C1332.59,276.89 1379.32,220.19 1508.5,259 C1528.64,265.05 1544.2819,272.5333 1561.2119,282.2933 " fill="none" id="AppComponent-to-HeaderComponent" style="stroke:#181818;stroke-width:1.0;"/><polygon fill="#181818" points="1566.41,285.29,1560.6106,277.3296,1562.0783,282.7928,1556.6151,284.2604,1566.41,285.29" style="stroke:#181818;stroke-width:1.0;"/><text fill="#000000" font-family="sans-serif" font-size="13" lengthAdjust="spacing" textLength="43" x="1207.5" y="225.4951">imports</text></g><!--link AppComponent to UserInputComponent--><g id="link_AppComponent_UserInputComponent"><path codeLine="101" d="M1043.21,170.83 C954.81,188.6 792.37,222.63 655.5,259 C644.96,261.8 639.8441,263.1742 628.9441,266.3242 " fill="none" id="AppComponent-to-UserInputComponent" style="stroke:#181818;stroke-width:1.0;"/><polygon fill="#181818" points="623.18,267.99,632.9367,269.3341,627.9834,266.6018,630.7157,261.6486,623.18,267.99" style="stroke:#181818;stroke-width:1.0;"/><text fill="#000000" font-family="sans-serif" font-size="13" lengthAdjust="spacing" textLength="43" x="854.5" y="225.4951">imports</text></g><!--link AppComponent to InvestmentResultsComponent--><g id="link_AppComponent_InvestmentResultsComponent"><path codeLine="102" d="M1108.5,181.19 C1108.5,206.66 1108.5,241.76 1108.5,270.34 " fill="none" id="AppComponent-to-InvestmentResultsComponent" style="stroke:#181818;stroke-width:1.0;"/><polygon fill="#181818" points="1108.5,276.34,1112.5,267.34,1108.5,271.34,1104.5,267.34,1108.5,276.34" style="stroke:#181818;stroke-width:1.0;"/><text fill="#000000" font-family="sans-serif" font-size="13" lengthAdjust="spacing" textLength="43" x="1109.5" y="225.4951">imports</text></g><!--link UserInputComponent to InvestmentService--><g id="link_UserInputComponent_InvestmentService"><path codeLine="103" d="M522.85,351 C551.01,392.69 591.292,452.3277 619.542,494.1577 " fill="none" id="UserInputComponent-to-InvestmentService" style="stroke:#181818;stroke-width:1.0;"/><polygon fill="#181818" points="622.9,499.13,621.1778,489.4329,620.1016,494.9864,614.5481,493.9103,622.9,499.13" style="stroke:#181818;stroke-width:1.0;"/><text fill="#000000" font-family="sans-serif" font-size="13" lengthAdjust="spacing" textLength="28" x="560.5" y="404.4951">uses</text></g><!--link InvestmentResultsComponent to InvestmentService--><g id="link_InvestmentResultsComponent_InvestmentService"><path codeLine="104" d="M1044.33,342.65 C962.48,383.67 826.2043,451.9522 736.9543,496.6722 " fill="none" id="InvestmentResultsComponent-to-InvestmentService" style="stroke:#181818;stroke-width:1.0;"/><polygon fill="#181818" points="731.59,499.36,741.4283,498.9044,736.0602,497.1201,737.8445,491.752,731.59,499.36" style="stroke:#181818;stroke-width:1.0;"/><text fill="#000000" font-family="sans-serif" font-size="13" lengthAdjust="spacing" textLength="28" x="948.5" y="404.4951">uses</text></g><!--SRC=[ZLLDRzim3BtxLt2-DDdW0BiQIx4kwB0Uze5sFHH53uhD909aoP2bR46M_pvPiMDRifBSRF9H91yVfOoHge87liLA5SZL4yejpH3s4S07mhach7C-OgMPgbAew9eJzidrlBx1Fz0ynnNbcD_MHmY-82pJZ2ZqpfdGa-M1brgblJgiOPh2Lj0yEaHHPkkyAyll8jUihkzaVAvGMhZlybBw47FaGXIbu0OqUchVQnhoQlQuiFQc-IUzBAYQU8ruXJbPWind1gSLvXUvFwNwXYH7ETgZKtFR85Mqdpi5heiboh6w-ZxyMs9cIdj4fINlUt8jYQAYimLvE9QmGoBxyPGhb0RNjsq9qtZFyv-h5mTzhaObLEtoZxEEkqBeceiw4dE_sfYKvInhcPnjLC5Y84CD_SQYhDNUpB4iauqTGFkdZQuIMjFTMZf59V8uvbx63ZwMs1VfCFrAo08cV7sKuNGUTugCZyJMOtyr2BCOoAPlyzZHzsGwymHnVQWxYkiZXsAwFgwLcerOQgK41xKhSHvNjl6unwrF_1Z7uLKTSlsPhc3oBh2ua-aKzX3_4D0bXIOfa2sXZ2mPpc8uM37MF_QZrexzM8fy1-_v-gkGyvYXWfme0c85mOIM0PN3Vc-nitgfu71mhErgcSiZqr8YptQGmitzy-ED3nxkt5KXWuMxFcAuYO6uRfB75HkRddFx3KVMRIOjrb39hA-e96iUBY4J9jPYLlArvNJpiQS9M9nGTJt-Gveajzuzcu9Pw-eYkBaI6tJKFNurRF1kfP2ZeS9mxA3Sopy8_2B57tEPD9OKg8cGoaM5tjCGtdsQErpakWRmqOB78imw57uHKQZEqHv6avqxOT5eyHSj1ra78t5dT5BUSPoWclzefEbnBe8ddEdeVCF14rtPZ4Wf6ElJu8kmfvPBNPz3dnrb6nNWrry-RoiliEd4_GS0]--></g></svg>